<?xml version="1.0" encoding="UTF-8" standalone="no" ?>
<!DOCTYPE svg PUBLIC "-//W3C//DTD SVG 1.1//EN" "http://www.w3.org/Graphics/SVG/1.1/DTD/svg11.dtd">
<svg xmlns="http://www.w3.org/2000/svg" xmlns:xlink="http://www.w3.org/1999/xlink" version="1.1" width="75" height="75" viewBox="0 0 200 200" xml:space="preserve">
<defs>
</defs>
<rect x="0" y="0" width="100%" height="100%" fill="transparent"></rect>
<g transform="matrix(1 0 0 1 100 100)" id="bdd8556a-b6a0-43a7-b05b-700af7a10931"  >
<rect style="stroke: none; stroke-width: 1; stroke-dasharray: none; stroke-linecap: butt; stroke-dashoffset: 0; stroke-linejoin: miter; stroke-miterlimit: 4; fill: rgb(255,255,255); fill-rule: nonzero; opacity: 1; visibility: hidden;" vector-effect="non-scaling-stroke"  x="-100" y="-100" rx="0" ry="0" width="200" height="200" />
</g>
<g transform="matrix(0.36 0 0 0.35 100 100.56)" id="aebf8c48-731e-4c6d-8ded-9b91e68eb335"  >
<path style="stroke: rgb(0,0,0); stroke-width: 0; stroke-dasharray: none; stroke-linecap: butt; stroke-dashoffset: 0; stroke-linejoin: miter; stroke-miterlimit: 4; fill: rgb(255,255,255); fill-rule: nonzero; opacity: 1;" vector-effect="non-scaling-stroke"  transform=" translate(-256, -256)" d="M 64 96 L 0 96 C 0 219.7 100.3 320 224 320 L 224 464 C 224 472.8 231.2 480 240 480 L 272 480 C 280.8 480 288 472.8 288 464 L 288 320 C 288 196.3 187.7 96 64 96 z M 448 32 C 363.8 32 290.6 78.5 252.3 147.2 C 280 177.39999999999998 300.5 214.1 311.3 254.79999999999998 C 424 243.1 512 147.9 512 32 L 448 32 z" stroke-linecap="round" />
</g>
</svg>